/* XPM */
static char *d30704b9c63b488185feeed69ebcdecb5za3BayZh93khVY4[] = {
/* columns rows colors chars-per-pixel */
"32 32 165 2 ",
"   c #370201",
".  c #3D0302",
"X  c #340A04",
"o  c #3C0F0B",
"O  c #2D1E0F",
"+  c #341F0F",
"@  c #3C1C10",
"#  c #2C210E",
"$  c #3D250E",
"%  c #2E2313",
"&  c #2B2C13",
"*  c #312316",
"=  c #3A2112",
"-  c #332D15",
";  c #3E2E14",
":  c #34261B",
">  c #3E241B",
",  c #36291D",
"<  c #3A2C1E",
"1  c #333314",
"2  c #3C3515",
"3  c #323B16",
"4  c #33361A",
"5  c #3A341E",
"6  c #343B1A",
"7  c #372A20",
"8  c #3C2E22",
"9  c #3E3123",
"0  c #3D3B22",
"q  c #3F3128",
"w  c #430203",
"e  c #4C0205",
"r  c #4C060A",
"t  c #4F0B0A",
"y  c #530106",
"u  c #55030A",
"i  c #5B030A",
"p  c #57090D",
"a  c #47190F",
"s  c #5F0A12",
"d  c #431411",
"f  c #421D13",
"g  c #501C11",
"h  c #591914",
"j  c #63050D",
"k  c #68050F",
"l  c #660710",
"z  c #6A0711",
"x  c #660D16",
"c  c #6D0A14",
"v  c #6E0E19",
"b  c #720C16",
"n  c #750E19",
"m  c #7A0F1B",
"M  c #631815",
"N  c #6D1619",
"B  c #6C1D1B",
"V  c #74141B",
"C  c #73191E",
"Z  c #4D2314",
"A  c #592119",
"S  c #6D201C",
"D  c #7F1E29",
"F  c #582E27",
"G  c #423425",
"H  c #4C3726",
"J  c #423A25",
"K  c #443629",
"L  c #46392A",
"P  c #4A3B2C",
"I  c #543D2B",
"U  c #5B3F2E",
"Y  c #732322",
"T  c #722823",
"R  c #782F2D",
"E  c #643222",
"W  c #683225",
"Q  c #6D3F2C",
"!  c #76322E",
"~  c #73392F",
"^  c #663631",
"/  c #7F3738",
"(  c #2E4514",
")  c #304915",
"_  c #394A17",
"`  c #36421C",
"'  c #3F4323",
"]  c #50411E",
"[  c #434425",
"{  c #444D26",
"}  c #454629",
"|  c #4C4629",
" . c #484E28",
".. c #574A27",
"X. c #52442A",
"o. c #504A2C",
"O. c #415E23",
"+. c #4E5827",
"@. c #465228",
"#. c #4C5729",
"$. c #465A28",
"%. c #4E5C2C",
"&. c #5B552D",
"*. c #545B2C",
"=. c #5A5F2E",
"-. c #4D4030",
";. c #68432A",
":. c #614A28",
">. c #71432C",
",. c #6C4E33",
"<. c #754637",
"1. c #764F36",
"2. c #78463D",
"3. c #625431",
"4. c #6A5230",
"5. c #695439",
"6. c #665D38",
"7. c #76563B",
"8. c #456323",
"9. c #486127",
"0. c #496826",
"q. c #4C662A",
"w. c #4F6B2C",
"e. c #54612E",
"r. c #53692D",
"t. c #56732F",
"y. c #5C6333",
"u. c #821B26",
"i. c #831E29",
"p. c #84232B",
"a. c #8B222D",
"s. c #872530",
"d. c #8B2631",
"f. c #8D2A35",
"g. c #8E2E39",
"h. c #912732",
"j. c #922B35",
"k. c #932E39",
"l. c #992F3B",
"z. c #843135",
"x. c #833537",
"c. c #8B313A",
"v. c #8B3A3F",
"b. c #94323C",
"n. c #9A323D",
"m. c #81573D",
"M. c #8E3C44",
"N. c #943741",
"B. c #993540",
"V. c #953A43",
"C. c #973B45",
"Z. c #9B3B45",
"A. c #9D3D46",
"S. c #9E3E49",
"D. c #A03742",
"F. c #A23B47",
"G. c #A23F4A",
"H. c #A83D49",
"J. c #944D46",
"K. c #885A44",
"L. c #955348",
"P. c #A1404A",
"I. c #A1434D",
"U. c #A6414D",
"Y. c #AA4752",
/* pixels */
"9 -.P P P L G H L P I L L P H L L H L P P I L H P P L L P P P -.",
"* G < G 8 G 8 8 8 8 8 8 8 G G < < G Z < < G 9 G 5 8 G 8 Z q G G ",
"* K 8 < 8 8 8 9 8 7 8 < 8 8 8 < < 8 9 q 8 8 9 G 8 , G 8 8 8 9 9 ",
"% 8 < , , 7 , 7 , 7 , , , < : : : 7 7 7 8 , : < < , 8 , , , , 8 ",
"G 9 9 9 9 G G G G 8 9 K G 9 8 8 5 8 G G G 8 9 G < G G G G G G K ",
"q < 9 8 , 8 8 9 8 8 8 K 8 8 8 8 , 9 9 9 8 , 9 9 , 8 5 < 8 8 8 G ",
"q 8 9 8 < 9 9 0 0 0 J } [ [ { {  .9.` 6 5 > Z 9 < 9 q 9 8 8 8 G ",
", : 8 , ' @.%.*.e.r.*.3.=.q.,.3.<.t.) ; Z s g 4 1 1 4 4 : < , 8 ",
"L L L P o.~ / x.2.4.M.V.M.2.C.I.A.r._ x x c c p t u a 6 J 9 L L ",
"< < 9 8 o.x.c.b.C.C.M.C.C.G.I.N.v.y.2 x x c c j j p p - 9 < 9 G ",
"8 < 8 9 X.z.c.b.A.P.Z.S.G.Y.G.J.G.6.A N v v c k l j i = , 8 9 G ",
", , < , I f.c.b.b.Z.B.A.Z.D.B.Z.Z.5.M V b c k k j i i @ : , 7 8 ",
"K L G G U k.f.b.B.Z.b.Z.Z.Y.S.S.Z.7.B n b b k j j i u f G K K L ",
"8 8 8 G ^ n.f.k.b.B.j.b.f.G.b.k.s.K.C m b c k j i i u d 9 q 8 9 ",
"8 8 7 8 ^ j.f.k.b.b.b.F.B.U.B.Z.H.L.S V b k j i i y u d 8 7 q q ",
"8 7 7 , F n.j.n.b.b.Z.U.F.U.G.b.F.J.C m z k j i i y e @ 7 : 7 q ",
"L L L L ..h.a.a.d.s.d.N.k.B.B.k.k.J.V b z l i u y e e + J K K P ",
"8 8 8 8 H p.a.j.B.h.B.D.B.H.D.F.B.m.V b z i u y e e w + G G G G ",
"8 8 9 9 H p.a.h.d.d.k.B.l.k.k.k.j.1.N c l i u e e w w O G G 7 G ",
": : * : J T u.a.d.h.j.k.l.k.g.k.j.4.B z l i y e w w w + 7 : > 7 ",
"L G 9 L | T u.a.s.d.d.d.j.k.d.j.! +.M z j i e w w w . & K K K K ",
"G 9 G G [ E C u.u.i.s.s.k.k.h.k.>.9.M j i u e w . . . % 8 8 8 G ",
"G 8 8 G [ ] E Y i.i.D R h.d.p.p.W 8.h i u y e . .   X % 7 8 8 G ",
": : : * [ q.F ] D D T Q i.Y ~ >.:.O.g t e y e . . X # & * * : 8 ",
"L L K K L } } @.#...=.*.;.E &.t.9.0.2 $ r w r o Z 8 0 L L G K 9 ",
"P 8 8 , 8 < : < 5 5 J }  .@.$.w.8.8.( 3 - > > , 8 q 9 9 9 , 8 7 ",
"P G > < 8 < < < < 9 < 9 8 9 9 5 5 [ 6 5 5 < 8 , 9 9 8 8 8 7 8 7 ",
"G , , : , : : , : : : : , , : : : : > , , , , : , , : , 7 : 7 7 ",
"G G G G G L G G 9 9 G q G L L H J K K 9 K L G G G G G < L K K L ",
"8 8 8 8 G 8 < < < < 9 8 8 8 8 8 G 8 8 < 8 9 8 8 8 8 9 : K 8 8 9 ",
"8 8 8 7 < 8 < 7 < < < < < < < 8 8 8 < < 9 9 9 9 9 8 7 : 9 7 8 9 ",
"8 8 < , < , , , , , , : : , : , < : , , , 8 , 8 7 8 7 * 8 : 7 9 "
};
