/* XPM */
static char *_642721638953[] = {
/* columns rows colors chars-per-pixel */
"32 32 143 2 ",
"   c #1E1410",
".  c #2E2014",
"X  c #312315",
"o  c #34261B",
"O  c #36291D",
"+  c #3A2C1E",
"@  c #372A20",
"#  c #3C2E22",
"$  c #3E3124",
"%  c #3F3128",
"&  c #423425",
"*  c #463926",
"=  c #4B3D25",
"-  c #443629",
";  c #46392A",
":  c #4A3B2B",
">  c #513E26",
",  c #75651D",
"<  c #7A631D",
"1  c #4D4127",
"2  c #4A402D",
"3  c #534223",
"4  c #5D4C25",
"5  c #52452A",
"6  c #57492C",
"7  c #5D4E2D",
"8  c #5D512D",
"9  c #4E4130",
"0  c #544731",
"q  c #5F4F31",
"w  c #5D5430",
"e  c #62552B",
"r  c #675B2F",
"t  c #6A5C2A",
"y  c #775D22",
"u  c #7B5E23",
"i  c #705D2C",
"p  c #6B5E32",
"a  c #69583B",
"s  c #755E32",
"d  c #7E5C31",
"f  c #735E3E",
"g  c #766322",
"h  c #796324",
"j  c #73622C",
"k  c #7B622A",
"l  c #6D6332",
"z  c #746433",
"x  c #796234",
"c  c #6F5D42",
"v  c #846E2A",
"b  c #84743A",
"n  c #8E7938",
"m  c #877748",
"M  c #937E53",
"N  c #9A8334",
"B  c #9A833A",
"V  c #9A8445",
"C  c #9E8A44",
"Z  c #93834C",
"A  c #9B854D",
"S  c #9C8A56",
"D  c #9E8C5B",
"F  c #A1874E",
"G  c #A28D55",
"H  c #A2895B",
"J  c #A29054",
"K  c #9F9765",
"L  c #9F986C",
"P  c #9E9578",
"I  c #A48B65",
"U  c #A38D6A",
"Y  c #A59466",
"T  c #A1976D",
"R  c #B99B61",
"E  c #BA9F68",
"W  c #A29573",
"Q  c #AEA374",
"!  c #CFB37C",
"~  c #BBAA84",
"^  c #BDB498",
"/  c #CCB582",
"(  c #C6B58D",
")  c #CBB48D",
"_  c #DDBA82",
"`  c #C5B492",
"'  c #CBB390",
"]  c #C5B79A",
"[  c #DCC085",
"{  c #E3C78F",
"}  c #E8C98E",
"|  c #E6C695",
" . c #E1C891",
".. c #CFC7A9",
"X. c #D3CCAC",
"o. c #D8C9AB",
"O. c #CEC9B3",
"+. c #D6CEBA",
"@. c #DBD4B9",
"#. c #E7CDA2",
"$. c #E7D2A1",
"%. c #F0D2A4",
"&. c #F5D5AA",
"*. c #F0D8A9",
"=. c #E3CDB0",
"-. c #E7D1B4",
";. c #EEDCBD",
":. c #F3DDB6",
">. c #F8DCB6",
",. c #F3DCBC",
"<. c #F9DBBC",
"1. c #EEE1B4",
"2. c #EFE3BC",
"3. c #F3E0B0",
"4. c #F5E1BA",
"5. c #DED4C5",
"6. c #EDDDC3",
"7. c #E6DDCB",
"8. c #F4DCC3",
"9. c #F9DAC0",
"0. c #F5DDC9",
"q. c #ECE1C6",
"w. c #F4E0C3",
"e. c #F1ECC5",
"r. c #F4EACD",
"t. c #F5E6D4",
"y. c #F8E5D7",
"u. c #F5E9D2",
"i. c #F5E6DC",
"p. c #FBEFDE",
"a. c #F5F2D6",
"s. c #FAF1DD",
"d. c #FEFBDB",
"f. c #FAEFEA",
"g. c #F7F2E4",
"h. c #F9F1E4",
"j. c #FEFBE5",
"k. c #F9F3EB",
"l. c #FBFEE8",
"z. c #F7FEF3",
"x. c #FCFCF4",
"c. c #F6FCF9",
"v. c #FCFCFB",
/* pixels */
"$ 9 : : 2 * & * : : : - * : : : & : * : : : * * > : & : : : * : ",
"X & # # & # # # @ # & & + & + & + # # # & & # & & # & + & & & - ",
"X - + + @ # # $ # # + + + & & + + # # & # # # & # @ & & & & # & ",
". $ + O @ @ # @ @ O + o O @ . o o O O O + + o + O O @ O X O O O ",
"& & # & & & & & & $ $ - a p r p i i q & & @ & & O & & & & & & - ",
"# + $ # + + # # + i u y [ %.u.x.8.| E s l & + # O @ & O & @ & & ",
"% # & # O # # = i { %.<.:.s.v.v.x.x.p.>._ V j # @ & & & & O O & ",
"O O # @ o O @ = s ,.f.v.l.x.v.v.c.v.x.j.,.H s @ X & @ O . & O O ",
"; ; : ; - * 8 S 4.;.g.x.c.c.v.v.z.z.g.6.0.6.8.l > ; & : - & - ; ",
"+ + $ # O + e D 6.:.H k 4.g.c.v.v.i.` x :.:.:.j : & & + & O & & ",
"# + # $ # + 7 G :.d ) ,.k ( 8.q.8.I H 3.j ( :.k > & O & & @ & & ",
"O O @ o O O 4 H ;.x ..j.z ) ,.:.;.D Y d.z ' <.y = X o O o O O o ",
"; * & & ; ; M ! :.` Q K ] 7.d.s.s.o.~ L ` =.<.R c @ - - - - - ; ",
"# # @ & $ # U #.h.h.X.` h.^ T T L @.6.` k.k.p._ c o & # & @ & & ",
"% # @ $ $ # U -.v.x.k.h.W x , v h Z ^ k.v.c.v._ c o & @ @ % # - ",
"@ @ @ O o O f ~ x.x.v.x.j g , , < < W v.x.c.v.M > . @ @ @ o @ @ ",
"; ; ; ; ; ; w P x.v.c.z.z M G J J b W c.v.v.k.l 6 * * + * ; - : ",
"% # # # # # 8 P v.v.v.x.O.5.7.7.q.+.7.v.v.v.x.f > # $ o & & & & ",
"# # # # # # 8 P v.x.a.e.r.u.y.y.t.r.r.r.x.v.x.l = # # o & & # & ",
"o o o o o o 8 U y.u.2.1.8.;.,.,.,.;.w.6.t.t.r.l = O O o @ O O @ ",
"- & $ ; - - e G ,.0.,.,.0.8.>.8.,.8.0.,.0.,.:.j > & & - - - - - ",
"$ $ & & + # 8 V | <.8.8.0.9.,.:.8.8.>.>.<.>.<.m 0 # # & & @ & & ",
"& # # & + # O 3 B } *.,.<.<.<.,.8.>.<.<.{ E H > : # # @ o & @ & ",
"o X O o o O   X u N C S  .&.,.8.,.$./ H n v d + @ @ o o X o X @ ",
"; ; ; - - - : 4 k h h g V F G H H A n g h h j 8 : : - ; ; & - & ",
"* # # O # + 7 y h h h < h h , h h h h h , h h j : # & & # O @ @ ",
": # # + & + * 7 z h < < h < h h h h g g g j l = - & # # # @ # @ ",
"& @ O O o o o + * t g , , , , , g < , , j 6 * o + O o O @ @ o @ ",
"& - - - & - - & # 5 1 5 5 5 5 5 5 6 5 = 2 : * & - - & + : & ; : ",
"+ # # @ # # # + + + $ # # # # # # # # @ $ $ # # # # # o - # # # ",
"# # + @ + # + @ + + + + + + # # # # # + $ $ # $ # + + o # @ @ & ",
"+ + + O + + @ o O O O O o O o + + o + o + + O # # # + o # o @ # "
};
