/* XPM */
static char *_642721642453[] = {
/* columns rows colors chars-per-pixel */
"32 32 147 2 ",
"   c #2E2014",
".  c #312316",
"X  c #34261B",
"o  c #36291D",
"O  c #392B1E",
"+  c #372A20",
"@  c #3C2E22",
"#  c #3E3124",
"$  c #3F3128",
"%  c #423425",
"&  c #453925",
"*  c #4A3D25",
"=  c #443629",
"-  c #46392A",
";  c #4A3B2B",
":  c #523F27",
">  c #503F2C",
",  c #75641D",
"<  c #7A631E",
"1  c #7D681A",
"2  c #4E4026",
"3  c #4E4229",
"4  c #5E4D25",
"5  c #53462C",
"6  c #564B2D",
"7  c #5C4D2A",
"8  c #5E5226",
"9  c #5D5129",
"0  c #4D4030",
"q  c #504330",
"w  c #5A4D31",
"e  c #5E5233",
"r  c #614E2A",
"t  c #675522",
"y  c #695B25",
"u  c #62522B",
"i  c #665A2B",
"p  c #775F29",
"a  c #7A5E29",
"s  c #655531",
"d  c #6A5E32",
"f  c #695A3C",
"g  c #6D6525",
"h  c #6B622D",
"j  c #756324",
"k  c #7A6224",
"l  c #72632B",
"z  c #7A6129",
"x  c #6D6233",
"c  c #746531",
"v  c #796130",
"b  c #75643C",
"n  c #7D6C3D",
"m  c #695F41",
"M  c #715B43",
"N  c #776146",
"B  c #7D7640",
"V  c #8D7837",
"C  c #887C3E",
"Z  c #90783B",
"A  c #846C44",
"S  c #887240",
"D  c #80714A",
"F  c #957F49",
"G  c #82775E",
"H  c #937E57",
"J  c #9A8846",
"K  c #92834C",
"L  c #98844E",
"P  c #9D8A4B",
"I  c #9C8B55",
"U  c #9D8C5D",
"Y  c #A28751",
"T  c #A18E51",
"R  c #A38A5B",
"E  c #9E8C68",
"W  c #9D9A73",
"Q  c #A28964",
"!  c #BE9E62",
"~  c #B89E69",
"^  c #A19474",
"/  c #B5A16C",
"(  c #BEA677",
")  c #BAA77D",
"_  c #C2A672",
"`  c #C4AE77",
"'  c #CEAD7B",
"]  c #C8B37F",
"[  c #B8A887",
"{  c #BEBBA7",
"}  c #CAB684",
"|  c #C5B883",
" . c #C6B58C",
".. c #CCB28B",
"X. c #DCBA8D",
"o. c #CAB691",
"O. c #C5B29B",
"+. c #CEBF9A",
"@. c #E3BA86",
"#. c #D4C38D",
"$. c #CDC19C",
"%. c #E6CA93",
"&. c #E3C89E",
"*. c #E6D19C",
"=. c #D1C5AC",
"-. c #CEC9B1",
";. c #D9D1BD",
":. c #EFD4A3",
">. c #EBD4AC",
",. c #F2D4AC",
"<. c #E6D1B0",
"1. c #EEDEB5",
"2. c #EBD4B8",
"3. c #EFDABF",
"4. c #F4DEB4",
"5. c #F8DDB4",
"6. c #F4DDBC",
"7. c #F9DBBC",
"8. c #EEE2B9",
"9. c #F5E0B6",
"0. c #F5E3BE",
"q. c #E7DCC2",
"w. c #EDDDC4",
"e. c #EDDFCE",
"r. c #F4DCC2",
"t. c #F9DAC3",
"y. c #F6DBCC",
"u. c #EBE0C3",
"i. c #F3E6C9",
"p. c #F3E4D2",
"a. c #F5EBD6",
"s. c #F2E6D9",
"d. c #F6EBDA",
"f. c #F9EFDE",
"g. c #F9F1DE",
"h. c #FEFADD",
"j. c #F9EFE6",
"k. c #F4F1E4",
"l. c #F9F1E5",
"z. c #F6F2EB",
"x. c #FAF3EB",
"c. c #F6F8EF",
"v. c #FEFBED",
"b. c #FBF5F2",
"n. c #FDFBF4",
"m. c #F6FEFD",
"M. c #FCFCFC",
/* pixels */
"# 0 ; ; ; = % * ; ; ; * = ; ; & = & ; : ; ; = ; ; ; % ; ; - ; > ",
". & @ @ % % @ @ @ @ % @ @ % % O O # O @ @ % O & % O % O % % % % ",
". = O O @ @ @ @ @ + @ O + @ 5 4 r r r r 7 % @ % O O % % % % O % ",
"  @ O o o + + + o o o # r 4 L ( ..=...` / 7 7 7 O o @ X . o o O ",
"& # # % % % % & % % 5 n ~ ..&.6.x.M.x.a.i.o._ ! 5 = % % % % % = ",
"@ O # @ o @ @ @ @ O 4 J &.p.s.k.M.M.M.M.n.s.>.%.a ; % + % + + % ",
"$ @ # @ o @ @ @ % ; D ( 7.M.M.m.m.M.M.M.M.k.i.9.Y f ; % + % % % ",
"o o @ o o X o O & x  .6.t.j.x.b.M.M.m.c.k.O.<.4.4.U w X X + + o ",
"= - ; ; & * = % 5 g } r.6.6.3.i.j.j.j.q. .Q )  .4.I u ; - % - ; ",
"O O @ @ o O O O * p | w.t.6.6.u.r.6.7...v 0.U l 4.R r @ @ + @ % ",
"@ O @ # @ O @ O : p ] 6.r.7.t.w.w.u.w. .c h.^ b 6.I 7 @ @ O % $ ",
"o o o o o o X o M @.:.w.r.t.r.s.n.M.M.j.8.c ..r.r.&.E + o + + + ",
"- - & # = - = = N @.0.v.n.e.k.n.M.n.M.M.n.w.d.b.v.<.^ = % = = ; ",
"@ @ + & # @ @ + m X.i.M.M.z.n.n.M.M.M.M.M.b.b.v.x.) b @ % @ @ $ ",
"@ $ + # # # @ @ w H ;.M.M.M.M.M.M.M.M.M.M.M.{ W ^ S r @ + + $ = ",
"+ + X + o X X 5 G -.s.M.M.M.M.M.M.M.n.n.M.W B l c z r + + + + + ",
"- ; = - = = ; A [ v.x.g.f.k.x.x.M.M.M.n.v.g j z j , s O * = = ; ",
"@ @ @ @ % 5 F ' 2.k.p.6.6.0.6.i.l.x.M.M.n.C V Z j t 5 X % % % % ",
"@ @ @ @ * l %.,.r.r.w.6.6.6.r.6.r.u.d.j.l.$.$.+.x 3 @ X % % @ = ",
"X X X X & j 5.7.7.4.r.r.6.r.r.6.9.r.r.1.0.b.b.v.x - + X @ X X + ",
"= & @ = 5 d 4.4.6.7.t.t.7.4.4.6.r.r.3.1.0.w.U l = % = = = = = = ",
"% # % % @ @ d  .9.9.6.t.7.6.6.r.r.r.r.y.y.6.I h @ @ @ @ % @ @ % ",
"% @ @ % + @ @ 7 K #.>.5.4.t.0.9.6.6.t.t.4.l 2 # % @ @ + + @ @ = ",
"X X X X . X o % e K P T R R } *.9.6.7.,.#.j 2 O X X X X . . X + ",
"* = = = = = % q t , < k j z V J T R Y Y K 5 * @ = - = - - % % % ",
"; @ @ O @ O w y , , k z k k k , k a z a k 6 = O @ % @ % % X + @ ",
"; % @ @ # + h , 1 < k z z k , < k k < 1 , h ; O % % @ @ @ + @ + ",
"@ + X X X X 6 h p 1 k k k < z k k k 1 , l 6 % X + X X + + + X + ",
"$ & = & # = = 3 s h j , , , j j z j j i w - = % = % % O = % = - ",
"@ @ + O # # @ @ = 9 9 8 8 8 8 u u 8 9 3 % @ @ @ @ @ % X = % @ % ",
"@ @ + @ # @ + @ O O O O O O O # # O @ o @ % @ % @ @ + X @ + + % ",
"+ O O o X o o o o o o X X o o o O o o o O + O + @ + + X @ X + @ "
};
