/* XPM */
static char *_642721649951[] = {
/* columns rows colors chars-per-pixel */
"32 32 132 2 ",
"   c #2E2014",
".  c #312316",
"X  c #34261B",
"o  c #36291D",
"O  c #392B1E",
"+  c #372A20",
"@  c #3C2E22",
"#  c #3E3124",
"$  c #3F3128",
"%  c #423425",
"&  c #463926",
"*  c #4A3C27",
"=  c #443629",
"-  c #46392A",
";  c #4A3B2B",
":  c #75631D",
">  c #7A621E",
",  c #4E412C",
"<  c #53462E",
"1  c #5A4C2C",
"2  c #4D4030",
"3  c #534431",
"4  c #564A35",
"5  c #584B30",
"6  c #5D5336",
"7  c #5E5338",
"8  c #604F2F",
"9  c #615127",
"0  c #63552D",
"q  c #68522A",
"w  c #65592D",
"e  c #6E5E2F",
"r  c #604D36",
"t  c #635434",
"y  c #635831",
"u  c #6D5B32",
"i  c #63553A",
"p  c #6B5F3F",
"a  c #756224",
"s  c #7A6223",
"d  c #746229",
"f  c #796228",
"g  c #6E6234",
"h  c #726234",
"j  c #71603B",
"k  c #6C6142",
"l  c #766342",
"z  c #796847",
"x  c #7D6E50",
"c  c #927A36",
"v  c #977D4D",
"b  c #837552",
"n  c #8A7550",
"m  c #8E7A59",
"M  c #907D51",
"N  c #9F8B5A",
"B  c #A89252",
"V  c #A5925B",
"C  c #AD945F",
"Z  c #B39F5B",
"A  c #9A8669",
"S  c #97886B",
"D  c #A99261",
"F  c #AE9861",
"G  c #B89F68",
"H  c #AB9876",
"J  c #AE9C7C",
"K  c #B39D73",
"L  c #B89F74",
"P  c #B69F79",
"I  c #B7A070",
"U  c #BDA872",
"Y  c #B3A579",
"T  c #C7AC7C",
"R  c #D2BA7D",
"E  c #B4A685",
"W  c #B5AE95",
"Q  c #B5B193",
"!  c #B7B098",
"~  c #C1AF8A",
"^  c #CBB385",
"/  c #CFBA98",
"(  c #D5BB97",
")  c #D3BE9A",
"_  c #CFC093",
"`  c #D1C396",
"'  c #D4C29C",
"]  c #D9C59B",
"[  c #E0C890",
"{  c #E6CC9C",
"}  c #D8C5A1",
"|  c #D4C5A8",
" . c #DBD4B5",
".. c #D9D6BE",
"X. c #E7CDA4",
"o. c #E9CCAA",
"O. c #E5D2AF",
"+. c #EFD6A9",
"@. c #F2D9A3",
"#. c #EAD7B2",
"$. c #EDDCB7",
"%. c #EFDDBF",
"&. c #F5DCB5",
"*. c #F9DAB3",
"=. c #F4DDBD",
"-. c #F9DCBC",
";. c #F1E1BB",
":. c #D9D7C1",
">. c #EEDEC3",
",. c #ECDECC",
"<. c #F4DCC2",
"1. c #F8DCC2",
"2. c #F3DDC9",
"3. c #ECE7CC",
"4. c #F3E1C4",
"5. c #F3E5CB",
"6. c #F3ECCD",
"7. c #EFE7D3",
"8. c #F3E5D5",
"9. c #F5ECD4",
"0. c #F5ECDA",
"q. c #FBF3DC",
"w. c #F6EDE4",
"e. c #F9ECE2",
"r. c #F4EEE9",
"t. c #F9F5E6",
"y. c #FAF4E9",
"u. c #FEFCEB",
"i. c #FAF5F3",
"p. c #FDFDF5",
"a. c #F7FEFE",
"s. c #FDFDFC",
/* pixels */
"# 2 ; ; ; - % * ; ; ; ; = * * ; & - * * ; ; * ; ; ; % ; ; ; ; ; ",
". % O % % @ @ @ @ @ % @ @ % % @ O @ @ @ @ % % % % O % % % @ % % ",
". & O O @ @ @ @ + @ @ O * 0 9 9 q 8 r % @ @ @ % O O % @ % % @ % ",
"  # o + + o @ + + @ 0 q v T '  .' ^ L q 9 & o O o o @ X . o o O ",
"% # # # # % % % 3 z U R { 2.y.s.i.w.9.( T M 5 % o % % % % % % % ",
"# O # @ o @ @ # 3 m #.9.t.i.p.s.s.s.s.q.$.K t # o o % o % + + % ",
"$ @ # # o @ @ * b ~ <.y.s.a.a.p.s.p.p.9.4.) A 3 O % % % + % % % ",
"o o @ o o X o 7 H &.<.8.e.r.s.s.s.t.9.>.=.=.) g . % O X X + + o ",
"- - ; ; & - - t P =.=.=.1.2.0.w.e.8.1.=.=.;.` u % = = ; = % % ; ",
"O O # @ O o O 0 L =.<.=.-.=.=.%.1.1.=.=.=.=._ j % % X % % O % % ",
"@ O O # @ O @ l T =.%.=.=.=.&.=.=.-.=.=.=.=.] n % % X % % + % % ",
"o o + o o X X H X.4.5.<.<.>.=.=.<.<.=.<.5.5.$.(   X X o X X + X ",
"- & % % - - - J O.0.u.0.8.0.8.8.8.8.8.7.y.u.6./ = + % = % = = ; ",
"@ @ @ # # # @ S  .u.p.s.s.s.s.s.s.s.p.i.s.i.3.E + X $ $ % + % % ",
"$ @ + # # # @ 7 W p.s.s.s.s.s.s.s.s.s.a.s.s.:.p + X $ + $ + + = ",
"+ + X + X X X 7 ! p.s.s.s.s.s.s.s.s.s.s.s.i.:.l o X + + X X + $ ",
"- - - - - = % i W p.s.s.s.p.s.i.s.p.p.s.s.s.:.p ; ; & O = = = ; ",
"@ @ @ @ @ # @ 7 Q u.p.3.;.<.1.<.<.4.4.,.t.u...k % O % X % % % % ",
"@ @ @ # @ O @ t Y 5.8.2.=.=.-.-.=.%.%.>.4.4.| p O % O X % % % % ",
"X X X X o X X 8 I =.2.<.=.=.<.=.=.=.=.=.=.=.) j X O X . + X X o ",
"= $ # & ; & = r C { *.-.=.1.2.%.=.=.=.-.-.=.} b = = = = ; = = = ",
"# # % % O @ @ % y N [ @.&.1.<.=.<.=.-.&.X.Y x < % + + % % + % = ",
"# # # % @ O @ @ * i V Z R o.1.=.=.+.{ G D z ; % o % o o o % + % ",
"X . o X . X o X & 1 d > c C L Y I F B : > 9 , O X X X X X   X o ",
"- & = = = = % 3 0 a s s s s : > f f s s s a u 3 = ; = = = % = % ",
"; @ @ O @ O o 6 h a > s s f s : > s s s s f f d + % % % % X + + ",
"; @ @ + @ O O 4 u f : : s f a a s f s > > a e r % % % + % + @ + ",
"# o O X X X o X * w d : : : a a f a s a d y ; . o o X X + + X + ",
"% % = % % = - % @ , 6 w 0 w w w w y w 0 r ; ; % % % % o = % % = ",
"@ @ @ @ @ @ @ O o @ # @ @ @ @ @ @ @ @ O + % % % + % % o = % + % ",
"@ @ + + O + o + O O O O O O O @ @ @ O O % % + % % + + X % X + % ",
"@ O O O O o O + o o o X X o o o O X O o o + o % + o +   + X + % "
};
