/* XPM */
static char *_642721653516[] = {
/* columns rows colors chars-per-pixel */
"32 32 144 2 ",
"   c #2E2014",
".  c #312316",
"X  c #34261B",
"o  c #36291D",
"O  c #392B1E",
"+  c #372A20",
"@  c #3C2E21",
"#  c #3E3123",
"$  c #3F3128",
"%  c #423425",
"&  c #463826",
"*  c #493A27",
"=  c #443629",
"-  c #46392A",
";  c #4A3B2B",
":  c #76651D",
">  c #79631D",
",  c #4F442A",
"<  c #544727",
"1  c #53442D",
"2  c #55482B",
"3  c #5A4E2F",
"4  c #4D4030",
"5  c #534531",
"6  c #564932",
"7  c #5C4D33",
"8  c #5D5139",
"9  c #61552F",
"0  c #6B5B2E",
"q  c #785D27",
"w  c #715E2A",
"e  c #635433",
"r  c #695633",
"t  c #6D5A33",
"y  c #61543A",
"u  c #715E32",
"i  c #735D3B",
"p  c #756324",
"a  c #7A6223",
"s  c #73622B",
"d  c #7C602C",
"f  c #6E6233",
"g  c #6B603F",
"h  c #736134",
"j  c #786131",
"k  c #796F32",
"l  c #73623B",
"z  c #79633E",
"x  c #695C41",
"c  c #6D614A",
"v  c #786641",
"b  c #8D7436",
"n  c #8D7B45",
"m  c #8C7C4A",
"M  c #957C45",
"N  c #917E48",
"B  c #867457",
"V  c #8E7D53",
"C  c #917F54",
"Z  c #968143",
"A  c #998346",
"S  c #99824B",
"D  c #8E805A",
"F  c #978856",
"G  c #94855D",
"H  c #928B5B",
"J  c #A49454",
"K  c #A4945F",
"L  c #948D65",
"P  c #A78F64",
"I  c #A08A68",
"U  c #A49260",
"Y  c #A2926E",
"T  c #A8976E",
"R  c #B09E69",
"E  c #AC9B7A",
"W  c #B49F74",
"Q  c #B49E7A",
"!  c #AFA173",
"~  c #B8AA73",
"^  c #B7A47B",
"/  c #C3A96D",
"(  c #C3AE7D",
")  c #ACA582",
"_  c #BFB38A",
"`  c #BAB29F",
"'  c #C7AD88",
"]  c #CBB583",
"[  c #C9B589",
"{  c #D5BE8F",
"}  c #C4B490",
"|  c #D4BD93",
" . c #D8BB96",
".. c #D6C18E",
"X. c #CDC093",
"o. c #DDC993",
"O. c #D0C298",
"+. c #DDC49B",
"@. c #C6C1A8",
"#. c #DAD0A0",
"$. c #E4CCA2",
"%. c #E0CEAC",
"&. c #EAD2A4",
"*. c #EAD4AB",
"=. c #EFD8AB",
"-. c #EAD7B9",
";. c #E3D8BF",
":. c #E8DEBE",
">. c #F5DEB7",
",. c #F8DDB1",
"<. c #F3DDBC",
"1. c #F9DBBB",
"2. c #F3E1B4",
"3. c #F1E1BC",
"4. c #DBD3C1",
"5. c #E1D8C0",
"6. c #EFDEC4",
"7. c #E3DECF",
"8. c #EBDECC",
"9. c #F3DCC1",
"0. c #F3DFC9",
"q. c #E7DFD1",
"w. c #ECE4CB",
"e. c #F2E3C5",
"r. c #F1E5CE",
"t. c #F1EACD",
"y. c #FCF6C6",
"u. c #ECE4D2",
"i. c #ECE8D4",
"p. c #EBE6DD",
"a. c #F3E4D3",
"s. c #F4EFD7",
"d. c #F6EDE1",
"f. c #FAEFE7",
"g. c #F8EEE8",
"h. c #FBF2E4",
"j. c #FAF3EA",
"k. c #FEFCEB",
"l. c #F7F6F2",
"z. c #FCF6F4",
"x. c #F6FEF6",
"c. c #FDFCF4",
"v. c #F6FDFB",
"b. c #FDFCFB",
/* pixels */
"# 4 ; ; , = % ; ; ; ; ; & ; * * = & * ; ; ; * * ; ; % * ; * * ; ",
". % @ @ @ % @ @ @ @ % @ O % % @ O % O % @ @ # & # @ % O % % % = ",
". & @ O @ @ @ @ + @ @ o @ % @ o O @ O % % @ @ % @ O % % % % % % ",
"  # o o + o + + + o o X o o X X X o o + O o X O O o O o X o X X ",
"% # # # % % % % % % 9 f 0 t 0 f 3 % % % % o @ % + % % % % % % = ",
"# O # # o @ @ 2 t s ~ #.t.k.0.+./ q i % O o % % o o % o % o % % ",
"$ @ # @ O O e J o.9.h.c.b.b.c.a.1.,.{ m 2 + @ @ + % % % % % o % ",
"o o @ + X X 7 ! e.k.b.b.c.c.c.b.z.k.:.C 1 X o o . % + o   o o o ",
"- - ; ; - g X.2.3.8.j.b.b.b.b.b.b.z.>.,.W y + % = = % = = % = ; ",
"O O # @ o f | 1. .j | s.b.b.c.i.6.9.1.1.Q y + % % % % O % o % % ",
"@ @ O # @ h { ' P ..U } r.a.a.e.9.9.1.1.Q y % % + % o % % + % % ",
"o o o o o j { Q G y.F ^ :.9.9.9.<.<.1.1.W 7 o X X X X o X + X X ",
"- & % $ & ^ %.%._ H } ;.j.j.h.0.6.:.0.<. .I = % = + % = = = = = ",
"@ @ @ $ = O.r.h.i.@.i.z.b.b.b.z.d.8.j.f.-.E % o + X $ $ % @ % % ",
"@ $ + # $ B 5.x.z.l.v.b.z.x.v.b.z.l.v.c.0.E + % @ X % + + $ @ = ",
"+ + X + X t S H ) k.b.v.v.v.v.b.b.b.c.c.} x o o o X o + + X + + ",
"- - - - - s a p k L 7.b.b.v.b.b.b.c.c.b.p.` 7 ; ; * & O * = = ; ",
"@ @ @ @ @ u d a s h 4.b.c.b.b.s.t.t.t.i.g.u.^ v ; @ % X % % % % ",
"# @ @ @ @ ; r n K Y q.z.j.a.a.0.<.3.<.9.0.9.=.] V 2 @ X % % + = ",
"X X X X X X 8 ) w.w.a.a.e.0.9.1.<.>.<.9.<.9.<.=.R e X X + o X + ",
"= $ # & = & ; c E e.e.3.9.9.<.>.<.<.9.9.9.9.1.3.W 7 = = = % % = ",
"% # % % O # # 5 D 3.3.9.9.<.<.9.9.<.9.9.9.>.2.T x % % % % % % = ",
"# @ @ % o O O % 1 G +.>.9.9.<.1.<.1.>.>.*.[ C 7 % + + + + + + % ",
"X X o X . o o X % l ( &.<.9.>.$.] A A Z N v & O o o X X . X X o ",
"; % = = = = % = # X z M Z A S M b > : : p h e & = * = - = = = % ",
"; @ @ o @ O o o % 7 w > p a a a q q > b a p s 9 ; % % % @ o + + ",
"; % @ @ % O O @ * f p a a > a a q b a a : : p f 6 @ @ + @ @ @ + ",
"# o X X X X X X O , 0 p > > > a q q > > p p w 2 % + + + + X + + ",
"% & = % % & = % @ % 1 9 s p a a > > > > w t 6 * & = & o = = = ; ",
"+ @ @ O @ @ @ o O O # - 5 2 2 < * < < < 2 5 @ @ @ @ @ X = @ @ @ ",
"@ @ O @ @ @ + + O O O O O O O @ # O O O # # @ # @ @ + X % X @ @ ",
"+ @ o o O o o + o o o o X o X O O X O X + @ o @ @ + + . @ X + % "
};
