/* XPM */
static char *_641224873831[] = {
/* columns rows colors chars-per-pixel */
"32 32 186 2 ",
"   c #1B0E04",
".  c #141104",
"X  c #1A1507",
"o  c #1D1906",
"O  c #17120B",
"+  c #1D160D",
"@  c #1F180C",
"#  c #161413",
"$  c #1A1512",
"%  c #2C1606",
"&  c #261D07",
"*  c #21150C",
"=  c #221A0D",
"-  c #2A1D0E",
";  c #341A04",
":  c #341C08",
">  c #221C15",
",  c #251E18",
"<  c #2D2406",
"1  c #24210B",
"2  c #2D240B",
"3  c #332B06",
"4  c #3A2E05",
"5  c #33250D",
"6  c #3F240A",
"7  c #352909",
"8  c #3C3306",
"9  c #3A3109",
"0  c #3B370A",
"q  c #222213",
"w  c #2E2313",
"e  c #272119",
"r  c #2C241C",
"t  c #332414",
"y  c #3D2C13",
"u  c #33261B",
"i  c #36291D",
"p  c #3A2C1F",
"a  c #34331B",
"s  c #362B21",
"d  c #3C2D22",
"f  c #3E3124",
"g  c #3F352B",
"h  c #432203",
"j  c #4F2704",
"k  c #492C09",
"l  c #532A04",
"z  c #5C2E02",
"x  c #413505",
"c  c #483504",
"v  c #423A06",
"b  c #443409",
"n  c #453C08",
"m  c #503D0D",
"M  c #412C15",
"N  c #512F10",
"B  c #473916",
"V  c #413F1D",
"C  c #5C3514",
"Z  c #593B1C",
"A  c #663302",
"S  c #623D18",
"D  c #423425",
"F  c #483627",
"G  c #443629",
"H  c #46392A",
"J  c #4A3B2C",
"K  c #4C4206",
"L  c #4E430A",
"P  c #544606",
"I  c #574907",
"U  c #594C05",
"Y  c #5E5108",
"T  c #4B4413",
"R  c #4D4A19",
"E  c #5B4718",
"W  c #53511F",
"Q  c #645607",
"!  c #6F5103",
"~  c #6C5C05",
"^  c #6A5609",
"/  c #65590C",
"(  c #735203",
")  c #705F05",
"_  c #6A4117",
"`  c #66411D",
"'  c #6C441D",
"]  c #72471C",
"[  c #6F6005",
"{  c #746306",
"}  c #7C6607",
"|  c #73640B",
" . c #65611C",
".. c #464625",
"X. c #4A4924",
"o. c #4A482C",
"O. c #545429",
"+. c #585729",
"@. c #5D5B2C",
"#. c #4D4030",
"$. c #5B4231",
"%. c #5E5E3F",
"&. c #6F4923",
"*. c #744B22",
"=. c #7A4F24",
"-. c #7F5123",
";. c #775E25",
":. c #63612A",
">. c #69692F",
",. c #72713F",
"<. c #555447",
"1. c #695B4B",
"2. c #6E6D47",
"3. c #7C7C43",
"4. c #67635C",
"5. c #6A6958",
"6. c #836D03",
"7. c #956C04",
"8. c #986D04",
"9. c #8A7607",
"0. c #8E7605",
"q. c #8E7A08",
"w. c #947B07",
"e. c #8D7E15",
"r. c #AF7E05",
"t. c #B17C03",
"y. c #835425",
"u. c #865729",
"i. c #8F5E2D",
"p. c #9A6634",
"a. c #9B6836",
"s. c #867143",
"d. c #AC8306",
"f. c #A28807",
"g. c #AE9104",
"h. c #B29506",
"j. c #B69F07",
"k. c #82823B",
"l. c #C5A207",
"z. c #CEAB06",
"x. c #C3A608",
"c. c #DAAC04",
"v. c #D9B506",
"b. c #E4BB03",
"n. c #E5BB05",
"m. c #EBC205",
"M. c #EDC308",
"N. c #F4C704",
"B. c #F5CB06",
"V. c #FDCD03",
"C. c #FDD003",
"Z. c #E5CC37",
"A. c #8F8E41",
"S. c #949341",
"D. c #B7B64E",
"F. c #B8B956",
"G. c #939266",
"H. c #88887E",
"J. c #A6A872",
"K. c #B2B174",
"L. c #FBDB43",
"P. c #E9D555",
"I. c #F3DC57",
"U. c #FAE05D",
"Y. c #CECF6D",
"T. c #F5DF61",
"R. c #F4E060",
"E. c #EEE670",
"W. c #9A9A90",
"Q. c #AFB186",
"!. c #BCBCAD",
"~. c #B8B3B3",
"^. c #DADA89",
"/. c #C2C299",
"(. c #D6D79B",
"). c #FDF08C",
"_. c #FBF49A",
"`. c #D2D3BA",
"'. c #E4E6AE",
"]. c #FAF1A0",
"[. c #FDF9AE",
"{. c #F5F5B6",
"}. c #FDF9B1",
"|. c #CBCCC8",
" X c #E6E7C9",
".X c #FBFCCE",
/* pixels */
"f #.J J J H D J J J J F G J J F F F J J J J F J J J F J J J J J ",
"t D f p D d p p d d D p d D D p p D p p D D M G d d D d D M D G ",
"t G d d d d f f d d d p p d d p p p f d d d d D d p D d D d d D ",
"w d i i s i i p s u p u p p u u u p p p p i u p p u d u u s u d ",
"G f f s @ @ @ = + + + * > = * * * @ @ @ = @ + @ @ * * $ D D G G ",
"f d f > d.c.c.c.c.c.c.c.c.c.c.c.c.c.c.c.c.c.c.c.c.c.c.} d d d f ",
"g s f > 7.7.c c c c c E c c L c c c c c c c c c c c t.( s d d D ",
"i u d > 8.( % h h h h Z 1.$.J 6 h h h h h h h h h   r.! s d p d ",
"H H J , 8.( ; l z z z C ~.|.H.2.- j A z z z z z j   t.! G f G J ",
"d i D , 8.( ; l A j F 4.W.(.'.Y.O.3 3 ; z A A A l   t.! f d d g ",
"d i d > 8.( ; l l +.R.F.4.a a a q x.V.j.* l A A j   t.! d d f D ",
"i s s * 8.( % : % a @.:.o.a Y 1 v L U n q >.X % :   r.! s i i d ",
"F G D , 7.k <.K.A.q X.X.T | Y ^ I 2 3 + a >.,.|.!.o.s.( f G G H ",
"d d d , < Q.{.F.R 1 n 0 . 0 | ].E.L 1 +.D.@.a k.^..X5.m d g d g ",
"f d d , 2 :. .L n / B.v.0 0.l.U.L.g.q.1 S.W R 2.J.`.4.;.s f d G ",
"s s , $ & < 4 o o o 4 3 ~ V.V.M.B.V.C.o . 3 8 . 1 1.+ 2 # r s d ",
"H H d e.[.}.[.[.}.}.}.P.Y V.n.o P V.V.v ).[.[.}.}.}.}._.m H G J ",
"d d d / I.I.T.T.T.T.T.Z.P V.b.. v V.B.K I.T.I.T.T.T.I.P.w f d D ",
"d d d e 2 x 8 < 7 7 3 7 K V.b.. c V.n.O 7 7 7 7 5 4 x < r D D G ",
"i u u p - d.8.M ] ] ] ' c V.m.< { V.v.t ] ] ] ] M 7.r.5 d i u s ",
"D D f F * B.n.M a.p.p.a.4 V.V.N.V.V.z.B a.p.p.p.M b.V., H G G H ",
"D f f D > z.B.M p.p.p.a.- { g.V.N.6.Y Z p.p.p.p.y N.z., d d d G ",
"f d f D r f.V.b y.u.u.u.C k L B.x.& N ] u.u.u.y.n V.w.u p p d D ",
"u t i i , ) B.P =.u.u.u.y.*.M 8 5 S =.y.u.u.u.*.Q B.^ , u u u i ",
"J G F s # / P 3 =.i.i.i.i.i.*._ ' u.u.u.i.i.i.*.9 P U r H D G f ",
"J d d > %.h.B.q.t -.-.-.y.-.y.Z u g u &.' &.-.5 f.B.w.i f i d s ",
"J d d $ 0 9./ f.} &.-.-.-.y.y 3. X{...f G.3.a q.9.q.~ d d d d s ",
"f i p u $ ~ z.v.m.2 ` ` ` Z V D.k.R 0 2.(./.,.q.l.v.0 d s i u s ",
"D D G D g 2 [ ~ [ O r r r r # 3 K n $ 0 0 8 3 8 ~ [ > p H D D J ",
"d d d p f d d s i p f s d f s u i f s e , r i s d s f u D f d f ",
"d d p d p d s d p p p p d p p p f p a p f f f f d p d u f i d f ",
"s p i i p i d u i i i u u i i p i i p i p p i p d d i t f u s f "
};
