/* XPM */
static char *f2ee022c51844ab0c7dcb104106dc291z1XGJJoSEjvHqvvk[] = {
/* columns rows colors chars-per-pixel */
"32 32 161 2 ",
"   c #160F0B",
".  c #1A130F",
"X  c #1E180B",
"o  c #161113",
"O  c #1A1412",
"+  c #2C1C0C",
"@  c #311F0D",
"#  c #231C14",
"$  c #2B1E15",
"%  c #261E18",
"&  c #24200B",
"*  c #2F280A",
"=  c #322D03",
"-  c #30200C",
";  c #362D0C",
":  c #3A2E0A",
">  c #3B3306",
",  c #37320F",
"<  c #2D2215",
"1  c #27211B",
"2  c #2B221B",
"3  c #342314",
"4  c #3C2511",
"5  c #342914",
"6  c #3E2C14",
"7  c #33261B",
"8  c #36291D",
"9  c #3A2C1E",
"0  c #3A3312",
"q  c #2E2520",
"w  c #362B21",
"e  c #3C2E22",
"r  c #3E3124",
"t  c #3F3228",
"y  c #473406",
"u  c #443807",
"i  c #46330F",
"p  c #453A0B",
"a  c #4B3F0B",
"s  c #543F0D",
"d  c #442C13",
"f  c #462F1B",
"g  c #433013",
"h  c #433917",
"j  c #493019",
"k  c #553414",
"l  c #543C14",
"z  c #52371E",
"x  c #57391A",
"c  c #5B3C1C",
"v  c #603F1F",
"b  c #423425",
"n  c #453827",
"m  c #443629",
"M  c #46392A",
"N  c #4A3B2C",
"B  c #4C430A",
"V  c #574A03",
"C  c #52450D",
"Z  c #5E470F",
"A  c #56490A",
"S  c #5B4B0C",
"D  c #4C4213",
"F  c #5E4518",
"G  c #614805",
"H  c #6A5706",
"J  c #6C560B",
"K  c #725E0B",
"L  c #604714",
"P  c #62431D",
"I  c #6B451E",
"U  c #71461C",
"Y  c #6D6004",
"T  c #7A6606",
"R  c #746309",
"E  c #7D670A",
"W  c #7A6909",
"Q  c #4D4030",
"!  c #644323",
"~  c #754C26",
"^  c #7A4E23",
"/  c #744F29",
"(  c #7E5123",
")  c #76502B",
"_  c #7C522A",
"`  c #6E6223",
"'  c #776D2E",
"]  c #7F712D",
"[  c #786F34",
"{  c #777035",
"}  c #787035",
"|  c #836E06",
" . c #867005",
".. c #8D7606",
"X. c #997706",
"o. c #957C07",
"O. c #947C0B",
"+. c #825324",
"@. c #845729",
"#. c #85592C",
"$. c #8A5A2B",
"%. c #905F2D",
"&. c #8C5D30",
"*. c #90602D",
"=. c #946232",
"-. c #996533",
";. c #A36E3A",
":. c #A6703A",
">. c #AA753C",
",. c #B3793F",
"<. c #B47B41",
"1. c #BA7E41",
"2. c #9E8406",
"3. c #968008",
"4. c #998109",
"5. c #A68A04",
"6. c #A68D06",
"7. c #A68A08",
"8. c #B28C07",
"9. c #AC9206",
"0. c #AD9008",
"q. c #B19405",
"w. c #B49805",
"e. c #BA9C06",
"r. c #BBA51F",
"t. c #968625",
"y. c #91863C",
"u. c #AA9423",
"i. c #BCA624",
"p. c #B5A237",
"a. c #C59C04",
"s. c #C3A204",
"d. c #C9A704",
"f. c #CDAA05",
"g. c #D3AC03",
"h. c #DCB405",
"j. c #DAB806",
"k. c #E2B601",
"l. c #E3BB03",
"z. c #E8BE01",
"x. c #E7C207",
"c. c #EAC303",
"v. c #F5CB05",
"b. c #FCCD03",
"n. c #FCD116",
"m. c #FCD220",
"M. c #FCDB3E",
"N. c #BB8043",
"B. c #C08345",
"V. c #C18546",
"C. c #E4CD58",
"Z. c #FBE25F",
"A. c #EDDD65",
"S. c #FBEA71",
"D. c #DDD385",
"F. c #FCEF98",
"G. c #EEE9A4",
"H. c #FBF3A2",
"J. c #FDF7B3",
"K. c #FCF7BC",
"L. c #FDFABC",
/* pixels */
"r Q N N Q M b N N N N N n N N N m n N N N N N N N N m N N N N N ",
"3 b 9 e 9 b 9 r e e b 9 f b f e e e w f f b 9 b b 9 b f e b b b ",
"3 b e e e e e r e e e 8 w b e w 8 f e e b 9 e b 9 9 b e b e f b ",
"< r 8 8 w 8 9 8 8 8 8 8 8 w 7 3 8 w w w 8 8 8 9 8 8 e 7 7 w w w ",
"b r r r r b b b b b b b b b 9 9 e e b b b e r b 9 r b b f b m m ",
"r 9 r 9 8 e 9 b e 8 9 n r e r 9 8 e b e e 8 b e 8 e r 9 e e e t ",
"t r r r 8 e e e e e w r 2 2 % 1 % % 2 7 7 w r e 8 n r r e e w b ",
"7 7 r 7 < 0 & 2 1 $ $ f ! ) &.=.=.#.) ! z 3 $ < 1 O ; 6 # w e w ",
"M N N t } G.y./ -.<.1.V.V.V.N.V.B.B.B.V.V.V.,.>.;.6 A.D.5 r M N ",
"9 9 r 8 ` Z.u.#.N.1.<.<.>.:.:.:.:.:.:.>.>.,.,.,.1.C M.C.0 e r r ",
"r 9 9 r C b.s.! -.-.=.-.-.-.-.-.-.-.-.-.-.-.-.-.-.S b.g.5 8 r m ",
"8 8 8 8 p c.z.z -.-.-.-.-.-.&.F F +.-.-.-.-.-.-.-.H b.e.2 8 w w ",
"M n b t h k.b.j =.-.-.-.-.-.f t.p.6 %.-.-.-.-.;.%.| b.7.e m M M ",
"e e e b 8 g.b.i ^ +.+.+.x j : S.F.T g 6 +.+.+.+.I o.b.E w r r t ",
"e t w r 8 w.c.D I ^ ^ ^ j 9.h.n.m.l.s.; ^ ^ ^ ^ x 6.c.S e e e m ",
"w w 7 7 , ' { { [ [ [ [ B s.b.s.0.b.h.u [ [ [ [ [ [ [ h q 8 q t ",
"M M M t ! H.L.L.L.L.L.K.O.a.b.V = b.g.Y F.L.L.L.L.L.J.] t M n N ",
"r r r r 0 r.i.i.i.i.i.i.R a.b.V = b.f.H r.i.i.i.i.i.i.l r r e b ",
"r w r 9 8   V y - d d d - w.b.V > b.d.- d d d 4 + G y # m b e m ",
"7 7 7 7 8 . 8.X.c +.+.+.c q.b.5.o.b.e.k _ +.+.I C a.J 3 w 8 7 e ",
"n n r n n 1 s.f.Z -.-.-./ 6.b.b.b.b.e.! -.-.-.~ H b.s b m m m m ",
"9 t b b e 2 5.z.Z =.=.=._ : > v.b.u > / -.-.=.I | b.X e b e e b ",
"b e r b 9 e  .b.L +.$.+.^ k + 7.9.+ k U +.@.@.c 2.l.o 9 8 9 e b ",
"7 7 7 5 7 2 > j.J @.%.%.%.$.U i g U $.*.*.%.%.F w.W o 7 7 7 7 w ",
"M n m m m q | R ; ~ $.$.$.@.+.U U +.$.$.$.$.$.5 A 6.O M M n m r ",
"N e f 8 e q O.f.3.x ( ( +.( +.^ ^ +.+.+.+.+.v R e.j.O r e 8 e e ",
"M b e 9 e e R B 4.K P _ +.^ +.+.+.+.+.+.+.^ C e.* 9.1 e w e e w ",
"b 8 7 7 8 7 S c.v.9.+ d d d d d d d d d d @ W v.x...w 8 w 8 8 q ",
"b b m b e M 7 A A a # w w w w 9 8 e e 7 w 2 6 S S : b 8 N n m N ",
"e e e e r e e 8 8 8 e e e r e b e e e w e b 8 8 w 8 b 8 b e e e ",
"r e e w 9 e 8 e 9 9 9 9 e 9 9 9 r e e 8 b e e b e e 8 8 e 8 e e ",
"9 8 8 8 9 8 8 8 8 8 7 7 7 8 8 8 8 7 8 8 8 e 8 w e 8 8 8 e 7 w b "
};
