/* XPM */
static char *result[] = {
/* columns rows colors chars-per-pixel */
"32 32 15 1 ",
"  c #2E2014",
". c #312316",
"X c #34261B",
"o c #36291D",
"O c #392B1E",
"+ c #372A20",
"@ c #3C2E21",
"# c #3E3123",
"$ c #3F3128",
"% c #423425",
"& c #453827",
"* c #443629",
"= c #463929",
"- c #4A3B2B",
"; c #4D4030",
/* pixels */
"#;--;&%-----&--=&&--------%-----",
".%@O%@@@@@%@O%%OO#O#@%@%#@%O%%#&",
".&O@@@@#+@@O@@@OO@#@%@O%OO#%%@@%",
" #Ooo+Oo+ooXoOoXXoOOOXXOOo@XXXOO",
"%####%%%%##&%#@O@#%%%O%%o%%%%%%*",
"#@#@o@@#@O@&#@#OX#%OOO#%X%Oo@@@%",
"#@##o@@@#+#%ooO@OO%%OO%OO%%%O%@%",
"oo@ooXoOoXXOXXXo.XXXXXooXOOXXOOO",
"==--&-&#=&=&%&&%%%%***%%**--*%*-",
"@o##ooOO#O###@O@@o%@@+++O%O%%o%%",
"#oo##o#+#####@O@@@%@%+%%%%OO%+%%",
"oo+ooXXX+oO+oooooo++oooXXXXoXXXX",
"=&##==&&%=%%%%&&**%%%%%%*@%*%***",
"@######o@@@@%@@@@$+X%+%X+X%@%@$*",
"@$+#####@@@+@+OO++@o%%+%+X%++$@*",
"++X+XoXXooooOXXX+ooXX%oooX+++X++",
"*----*@---%-%%***%**-------O----",
"@@@@@%@@O@@@X@%@$+@%@@@@@O@O%@@@",
"@@@@@@@%@@@@O@%%@@@%@@@@O@@.-@@%",
"XXXXX.XXXXOXXX+XoXoOXXXXOOO.@XX@",
"%%@*%-%%%%%-%%*%%****%%%$*$--**-",
"%%%%@@OO@@@@+%%%@%%@O+%@@@@@@@@#",
"%@@%@@@@OO@@%o%%%@@@++@@@@@OO@@*",
"XXXX.XOXXXOOXXXXoo+ooo@OXOXX...O",
"-%-***%%*%%%%*%**%****%%-----**@",
"-@@O@XoOOO%%+%%+%O%O@@@+@@##@X@@",
"-@@@@@@@%oO+%%X%X%%X%X@+####@@@@",
"%XXXXXXXXXXXXXXXXX%XXXXXOXXX+XXX",
"%%*%%**%%%%%%******%**%%%%%O***-",
"@@@@@@@Xo%o%%+%X%+%X@%@@@@%X*@@@",
"@@@O@@@OOOO%XX%%%%XX%@@%@@+X@o@@",
"@ooOXoOoXXXXXXXXXX+Xo@o+@@oX@X+*"
};
