/* XPM */
static char *_641142172327[] = {
/* columns rows colors chars-per-pixel */
"32 32 158 2 ",
"   c #020303",
".  c #0D0505",
"X  c #110E03",
"o  c #120E0B",
"O  c #191304",
"+  c #1A150E",
"@  c #1B1611",
"#  c #231C15",
"$  c #322404",
"%  c #2C2116",
"&  c #2C2219",
"*  c #312316",
"=  c #34261B",
"-  c #3C251A",
";  c #36291D",
":  c #392B1E",
">  c #372A20",
",  c #3C2E22",
"<  c #3E3124",
"1  c #3F3128",
"2  c #4F1410",
"3  c #5A1612",
"4  c #6E1E16",
"5  c #7B1C15",
"6  c #543B07",
"7  c #47271D",
"8  c #5F2719",
"9  c #5B281E",
"0  c #433017",
"q  c #44331F",
"w  c #513C1E",
"e  c #692919",
"r  c #7C2414",
"t  c #742119",
"y  c #633818",
"u  c #423425",
"i  c #443629",
"p  c #46392A",
"a  c #483829",
"s  c #4A3B2B",
"d  c #503A2A",
"f  c #493D33",
"g  c #782F23",
"h  c #6B3727",
"j  c #5E420D",
"k  c #63470C",
"l  c #78530B",
"z  c #7E5808",
"x  c #624515",
"c  c #624618",
"v  c #61481F",
"b  c #6D4F18",
"n  c #724C13",
"m  c #5F4429",
"M  c #4C4033",
"N  c #584330",
"B  c #65492A",
"V  c #634531",
"C  c #6F4B36",
"Z  c #674F39",
"A  c #704E37",
"S  c #7D563D",
"D  c #7F3742",
"F  c #454046",
"G  c #5D5449",
"H  c #5E5358",
"J  c #614B43",
"K  c #765C44",
"L  c #685556",
"P  c #605B6B",
"I  c #831C16",
"U  c #8D1A17",
"Y  c #921B17",
"T  c #951B18",
"R  c #873A0F",
"E  c #872715",
"W  c #8B2E13",
"Q  c #8A221C",
"!  c #982317",
"~  c #972A15",
"^  c #952818",
"/  c #913711",
"(  c #9F2F27",
")  c #864A0F",
"_  c #95470F",
"`  c #865C06",
"'  c #8A5F06",
"]  c #855C0D",
"[  c #96560D",
"{  c #884612",
"}  c #864F1F",
"|  c #9A4619",
" . c #A3520F",
".. c #AA5A11",
"X. c #8E6206",
"o. c #92660B",
"O. c #97690A",
"+. c #9D6D0A",
"@. c #8A641C",
"#. c #9E7014",
"$. c #A36609",
"%. c #A5730C",
"&. c #A97509",
"*. c #AA7608",
"=. c #B17C0B",
"-. c #B56E18",
";. c #A47514",
":. c #AE7D15",
">. c #B87D12",
",. c #BC741F",
"<. c #82593F",
"1. c #A24F3A",
"2. c #846332",
"3. c #C3731F",
"4. c #CA7D20",
"5. c #815B41",
"6. c #8F6144",
"7. c #916346",
"8. c #9C7253",
"9. c #B9674A",
"0. c #B0704F",
"q. c #AB7655",
"w. c #B77756",
"e. c #B8810F",
"r. c #BC8512",
"t. c #B18118",
"y. c #B98518",
"u. c #BE8A1D",
"i. c #C38B15",
"p. c #C2831C",
"a. c #C78C1A",
"s. c #CD941A",
"d. c #D1971C",
"f. c #D69C1E",
"g. c #CA8820",
"h. c #CC9622",
"j. c #D69622",
"k. c #D99E21",
"l. c #DDA223",
"z. c #BD8B41",
"x. c #BA865B",
"c. c #B08865",
"v. c #BC8B65",
"b. c #CF8764",
"n. c #C48B67",
"m. c #CB8B62",
"M. c #C9946B",
"N. c #CC956C",
"B. c #D2956C",
"V. c #CD9D72",
"C. c #D9A478",
"Z. c #E3AC7E",
"A. c #586690",
"S. c #5A709E",
"D. c #637BA9",
"F. c #ACACA3",
"G. c #B2B3AA",
"H. c #E9B182",
/* pixels */
"< M s s s p u s s s s s p s s s u p a s M s a s s s p s s s s s ",
"* u : q < < , , , , < : , u < : : u , , , q , q < , u , q q u u ",
"* u , : , , , < , , , : : , , , : < , , q , , u , : , , u , , u ",
"% < : ; ; > : ; ; ; ; = : x %.s.%.u.h.;.q : : : : = , ; = ; ; : ",
"u < < < < < i u u q < p b t.k.l.f.l.d.&.+.u.B p , < u u u u u i ",
"< , < , ; , < < , : : 9 ) e.k.e.k.l.k.d.d.l.#.x ; , < : , , < < ",
"1 , < , : , x @.@.n 8 t W ..i.i.i.d.l.l.l.i.i.#.k p < < < , , < ",
"; = , ; ; k ;.s.d.e._ E U ~ ..k.i.f.l.l.l.i.f.i.] : : ; = ; : , ",
"p p s s p z u.f.l.k.e. .! U ^ 3.l.l.l.l.l.l.l.s.#.B p p p < p s ",
": : < , ; : l t.f.f.l.r.[ E 5 Y 4.f.k.l.l.l.f.l.s.+., < < : < < ",
", : , < , : o j +.=.f.l.i.[ r Y T  .>.j.j.l.r.i.i.o., , < : < u ",
"; ; ; ; ; = = + $ &.&.s.f.s.+.t T T T T ! $.s.i.X.= = ; ; ; ; , ",
"p i < 1 p p i #   X O z &.r.f.f.j.| I T Y T E r e < 1 i < p p p ",
", < , < < < < & + o A x.2.k r.=.k.g.-._ I Y I R [ z < , < 1 < < ",
", , > < < < , % @ u M.H.K @ b &.=.i.i.p.,.4.,.u.r.+.< , 1 > 1 1 ",
"> > > > = ; = % # d N.Z.x.Z B z.k ' =.i.i.k.l.f.i.y.@.< > > > > ",
"i i p i i i , a a N q.C.H.M.8.H.d 6 l ` &.a.l.s.r.s.s.w p p p s ",
", , u , , u , , : u V v.H.H.H.H.n.d . $ ` X.:.p.t.O.+.0 i , , u ",
"< , > , , , q , : q , S q.m.m.C.Z.x.C .         + < , = u u , i ",
"= = = = > = = = = = : , A 7.A q.q.5.h 2 .     + ; ; = * > ; ; > ",
"i u < u i i u u i i u i s s V C.5.6.6.h 3 . & , i i i i s i i s ",
"u < u u : , , , > , , u u 7 t ( T 9.B.w.4 - , > , , , , , , , u ",
"u , < u : , , q : : , , c { U T 1.0.m.b.Q 7 , u , , > ; : > , u ",
"= = = = = = = = = = : ; y / T Q n.M.N.0.Q 7 > > = : = = = = = ; ",
"s u i i i i u i u i i u y W Y g B.H.V.K D s i < p s p s p u i < ",
"s , , : , : ; ; : : < < c } D L q.c.c.P A.1 , ; , , < u : ; , , ",
"s , , > , : : , , < : , , F A.D.J V H S.A.1 < ; < < , , , > , > ",
", > , = = = ; = = = = = ; ; f G.f > > G F.M = ; : ; = ; > = > > ",
"u u i u u i i < < u u u u s C n.V.V.v.5.M s < < i u < : p i i p ",
", , , , q , , > : : < , , , , # # # > u < < < < , < < ; i , , < ",
", , > > : , > > : : : : , : > & & & & > < < , < < : , * < ; , < ",
", : : ; : ; : > = : ; = = ; ; : ; = ; = : : ; , , , : & , = > < "
};
