/* XPM */
static char *_641142179814[] = {
/* columns rows colors chars-per-pixel */
"32 32 154 2 ",
"   c #000203",
".  c #0B0A08",
"X  c #171410",
"o  c #191410",
"O  c #2F0C0A",
"+  c #231A14",
"@  c #291E15",
"#  c #371913",
"$  c #2E2212",
"%  c #2D2219",
"&  c #312316",
"*  c #34261B",
"=  c #36291D",
"-  c #3A2C1E",
";  c #372A20",
":  c #3C2E22",
">  c #3E3124",
",  c #3F3128",
"<  c #40110E",
"1  c #54120F",
"2  c #5D1411",
"3  c #701513",
"4  c #751A14",
"5  c #7C1A15",
"6  c #4F2219",
"7  c #572319",
"8  c #4C391C",
"9  c #583F1A",
"0  c #61241C",
"q  c #792616",
"w  c #423425",
"e  c #4C3526",
"r  c #453827",
"t  c #4F3D25",
"y  c #443629",
"u  c #46392A",
"i  c #4A3B2B",
"p  c #553C2B",
"a  c #5C3F2D",
"s  c #644605",
"d  c #7F590F",
"f  c #624615",
"g  c #634A1D",
"h  c #684A19",
"j  c #745213",
"k  c #7B5610",
"l  c #544026",
"z  c #5C412E",
"x  c #4D4030",
"c  c #60432F",
"v  c #6D5225",
"b  c #7A5A21",
"n  c #664531",
"m  c #654A35",
"M  c #6C4E38",
"N  c #77533A",
"B  c #7B553D",
"V  c #474B5A",
"C  c #484C5A",
"Z  c #7C5C43",
"A  c #4B4E65",
"S  c #535A78",
"D  c #615F6E",
"F  c #6A6A76",
"G  c #811715",
"H  c #831A16",
"J  c #8A1A16",
"K  c #911A17",
"L  c #961A18",
"P  c #893710",
"I  c #9B3513",
"U  c #A4361A",
"Y  c #94490E",
"T  c #865D06",
"R  c #9C530C",
"E  c #954319",
"W  c #815C13",
"Q  c #9F5D1C",
"!  c #91650B",
"~  c #856316",
"^  c #8D6117",
"/  c #A86D0D",
"(  c #A77306",
")  c #AD7809",
"_  c #B27D0C",
"`  c #B56C1D",
"'  c #A47313",
"]  c #A97918",
"[  c #B37312",
"{  c #B37F13",
"}  c #BE7818",
"|  c #854C38",
" . c #944232",
".. c #81573E",
"X. c #9B573F",
"o. c #A47923",
"O. c #C16C1F",
"+. c #875C41",
"@. c #8E6144",
"#. c #8C664A",
"$. c #946547",
"%. c #946548",
"&. c #986D4F",
"*. c #A2664A",
"=. c #A5704F",
"-. c #AA7351",
";. c #A47857",
":. c #AB7C5A",
">. c #B07F5B",
",. c #8F7D6C",
"<. c #927760",
"1. c #B7800E",
"2. c #B8810F",
"3. c #BC8613",
"4. c #B08120",
"5. c #B08028",
"6. c #C38B15",
"7. c #C1841A",
"8. c #C7881B",
"9. c #C89017",
"0. c #CC931A",
"q. c #D1971C",
"w. c #D49A1E",
"e. c #D18D20",
"r. c #D79D20",
"t. c #D99E20",
"y. c #DEA323",
"u. c #B4825E",
"i. c #9E866F",
"p. c #9D8979",
"a. c #BC916B",
"s. c #C0825C",
"d. c #C68E66",
"f. c #C6936B",
"g. c #C99068",
"h. c #D2976D",
"j. c #DA986C",
"k. c #CF9F74",
"l. c #D29E73",
"z. c #DE9F72",
"x. c #E6AC7E",
"c. c #555F81",
"v. c #645D83",
"b. c #5A6B9B",
"n. c #787B85",
"m. c #626591",
"M. c #5A6FA1",
"N. c #5B72A6",
"B. c #5B74AA",
"V. c #6A7CA4",
"C. c #858991",
"Z. c #B7A291",
"A. c #97A4B5",
"S. c #E8AF80",
/* pixels */
"> x i i x r w i i i i u e i i i y i i t i i u i i i r i i i i i ",
"& w : - : w - : : : w : : w w - - : - - : 8 : w 8 - w : > w 8 y ",
"& y - : : : > : ; : ; - - > : - - : : > : w : > ; = > : : : ; w ",
"$ > - = = ; - ; ; - - f ) y.1.0.y.y.) 9 - = = - ; ; : = ; = ; ; ",
"w > > > > w w w y w j ' w.y.r.t.y.y.w.' f : > r - w w w w w w y ",
"> - > : = : : > : W 3.9._ y.y.y.y.y.y.w.] k : > = > - - : : ; w ",
", : > > - ; : : : ] w.t.9.3.r.y.y.y.y.y.2.d > - - w w : : : : w ",
"= = : = = = i k 6 Q 7.0.y.3.t.y.y.y.y.0./ Y 6 f - - - = = : ; ; ",
"u u i i r l b y.4 5 Y [ y.y.y.y.w.w.w./ P 5 4 _ h l u u u > u i ",
"- - > : = d 2.y.4 K 5 E y.y.y.y.q.( ( q J K 4 y._ h : > > - > > ",
"> ; - > ! 9.y.y.y.U L L L L L L L L L L L I ( y.y.6.T : : - > , ",
"= = = = ! 9.y.y._ 8.[ R 5 L H 5 5 5 5 R } e.w.y.y.w.] ; = = = : ",
"u r w > g 4.y.y.9.t.q.7.` O.` ` ` ` ` 8.r.y.y.3.t.o.v y r y u u ",
": : : > > v o.y.6.6.w.y.y.y.y.y.y.y.y.y.0.6.6.6.W 8 : : > : > , ",
": , ; > > > 8 ~ ^ { 6.9.9.9.9.9.9.9.9.9.' W s ~ $ $ : , : ; , , ",
"; ; * ; = = % . a 5.' T T T T T T T T T g -   . % & ; ; ; ; ; : ",
"u i u y y y w y e n @                         e u u e - u y y i ",
": : : : : : : w n n @.@.4   2 O     4 *...n n w 8 - w * w w w w ",
": : : : : : p %.n -.n # 4 2 J G 3 2 4 # ..=.n $.u : ; * w w : w ",
"= = & = = a +.-.=.z.| 2 J J K L K J J 1 =.h.-.-.+.p = & ; ; * ; ",
"w w : y M :.d.s.s.>. .J L L L L L L L J X.>.s.s.g.&.m y y w y y ",
"w > w y B f.S.z.@.e 4 L L L L L L L L L 0 p $.j.S.u.N : w : : y ",
"w : : w p ;.l.k.c o 2 K L L L L L L L K < + z l.k.#.p ; ; : : w ",
"* & = * & p n n = ; 7 H L L L L L L L 5 6 * - n n y * * * * # ; ",
"i w y y y y w y u c.B.v.4 K 5 J L L 4 b.b.S r > u i u i y w y > ",
"i : : - : - = = ; S N.N.m.m.m.v.F m.m.B.M.S : = : w : w : - : : ",
"i w ; - : - - : : C.F V C A.V.b.V.A.C C n.n.: - w : : : : ; : ; ",
"> ; = * * * * * * p.<.Z N Z.D A F Z.N Z i.,.= * = = = = ; * ; ; ",
"y y y w w y y w - $.l.x.j.-.z y n =.j.S.d.@.w w u w w - y w y i ",
"- ; : : w : ; - - ..:.a.a.$.i : a %.a.a.;.B > ; : : > = y : : : ",
": : ; ; - : - ; - w @ X o w : : : e o o = w > > : : : & > = : > ",
"- - - = - = - ; - = = = * * = - = * = ; - : = ; : - = % : * ; , "
};
