/* XPM */
static char *_641142175949[] = {
/* columns rows colors chars-per-pixel */
"32 32 162 2 ",
"   c #010203",
".  c #0A0908",
"X  c #160707",
"o  c #140F06",
"O  c #1B1404",
"+  c #16120E",
"@  c #1B140F",
"#  c #181410",
"$  c #1E1913",
"%  c #211904",
"&  c #211A14",
"*  c #281F17",
"=  c #322404",
"-  c #2B2116",
";  c #2D2218",
":  c #312416",
">  c #34261B",
",  c #36291D",
"<  c #392B1E",
"1  c #372A20",
"2  c #3C2E22",
"3  c #3E3123",
"4  c #3F3128",
"5  c #3F3633",
"6  c #661D16",
"7  c #791A14",
"8  c #543B0C",
"9  c #4A2817",
"0  c #49281D",
"q  c #43321E",
"w  c #543D1A",
"e  c #583A18",
"r  c #702019",
"t  c #762A1B",
"y  c #462C21",
"u  c #423425",
"i  c #453827",
"p  c #4E3C23",
"a  c #443629",
"s  c #483728",
"d  c #46392A",
"f  c #4A3B2B",
"g  c #503024",
"h  c #533C2B",
"j  c #5C3F2D",
"k  c #413938",
"l  c #683929",
"z  c #5B4107",
"x  c #5B4117",
"c  c #78540A",
"v  c #694A12",
"b  c #744513",
"n  c #7C5417",
"m  c #584322",
"M  c #574528",
"N  c #4D4030",
"B  c #564636",
"V  c #6A4E21",
"C  c #6B4B36",
"Z  c #644E39",
"A  c #655039",
"S  c #7B543B",
"D  c #6E3E48",
"F  c #7B3D4D",
"G  c #5D4A44",
"H  c #655342",
"J  c #78644F",
"K  c #625A68",
"L  c #841B16",
"P  c #8D1A17",
"I  c #911A17",
"U  c #941A18",
"Y  c #852B18",
"T  c #982517",
"R  c #9A2A15",
"E  c #873313",
"W  c #8C3710",
"Q  c #A4361A",
"!  c #922720",
"~  c #962A22",
"^  c #A1362C",
"/  c #9D460F",
"(  c #934A0D",
")  c #865D05",
"_  c #87500F",
"`  c #8F510D",
"'  c #9A5A0A",
"]  c #825C12",
"[  c #A6511B",
"{  c #8C6106",
"}  c #92650B",
"|  c #9D6109",
" . c #9D6E0C",
".. c #8E6514",
"X. c #8D6619",
"o. c #916612",
"O. c #966E1D",
"+. c #AB650E",
"@. c #AD6B0E",
"#. c #A67306",
"$. c #AB750A",
"%. c #AE790A",
"&. c #B27D0C",
"*. c #B0671A",
"=. c #BC6C1E",
"-. c #A07312",
";. c #AB7D19",
":. c #B77A17",
">. c #A14C38",
",. c #AD573F",
"<. c #876626",
"1. c #9D7422",
"2. c #977033",
"3. c #C97D20",
"4. c #895C42",
"5. c #896848",
"6. c #956547",
"7. c #8D6E51",
"8. c #9B6E55",
"9. c #AE6A4C",
"0. c #A57945",
"q. c #A6714F",
"w. c #AA7957",
"e. c #B77756",
"r. c #B67D59",
"t. c #A57F63",
"y. c #B9820F",
"u. c #BC8512",
"i. c #BF8813",
"p. c #B2831D",
"a. c #BC893B",
"s. c #C48C16",
"d. c #C68C19",
"f. c #C89017",
"g. c #CB9219",
"h. c #D1971C",
"j. c #D49A1E",
"k. c #CB8820",
"l. c #D18A21",
"z. c #D79D20",
"x. c #DA9F21",
"c. c #DEA323",
"v. c #AE815D",
"b. c #B98764",
"n. c #C28963",
"m. c #CD8F66",
"M. c #C9946B",
"N. c #CA966D",
"B. c #D69166",
"V. c #D8966C",
"C. c #CF9D72",
"Z. c #D19B70",
"A. c #D3A277",
"S. c #DAA376",
"D. c #E4AC7E",
"F. c #596993",
"G. c #6A789B",
"H. c #6B82AC",
"J. c #9E9C91",
"K. c #B8AC9C",
"L. c #E7AF80",
"P. c #EBB484",
/* pixels */
"3 N f f N i 3 f f f f f d f f f i i f f f f f s f f i f f f s f ",
": u < y 3 3 2 3 1 2 u 2 < u y < < 3 2 2 3 q 2 u q 2 u < u u u u ",
": u < < 2 2 3 3 2 2 2 , < 3 2 < < 2 2 2 2 3 2 3 3 < 3 2 u 2 q u ",
"- u < , 1 , , , , 1 , , , < > > > , < < < < > 2 > , 3 , > , , 1 ",
"u 3 3 3 3 3 i u u u 2 p <.1.X.] 1.] p 3 u < 3 u < u u u u u u a ",
"3 < 3 3 , 2 3 3 2 m O...:.z.z.g.c.g...x 2 , 2 3 , 3 2 < 2 2 2 u ",
"4 2 3 3 , , < 2 x O.j.s.i.j.x.x.f.c.&.b 0 , 3 2 , u u 2 2 2 2 u ",
", > 3 , , > , w o.s.h.c.c.c.z.g.y.g.+.E 6 9 x V x w < < , 1 1 1 ",
"d f f f i d i } f.g.u.c.c.c.g.u.j.+.R L 7 ( %.c.i...x f d 3 d f ",
"< < 3 , , < w  .g.c.c.c.c.c.c.x.3.T P T / u.x.c.z.u.] 3 3 , 3 4 ",
"3 , 3 3 2 1  .g.c.c.c.c.c.c.c.l.T 7 7 ( u.x.c.c.u.n q 2 3 2 3 4 ",
", , , , , , #.j.u.i.c.c.c.&./ U U 7 | f.c.j.%.#.= + > < > , 1 1 ",
"d i 3 3 d d x -.f.f.@.Q Q R T I Y ' g.c.h.%.%.% > , 4 4 i 4 i d ",
"2 3 3 3 3 3 2 t E E T U U L [ k.d.l.y.&.c O O   - , 3 2 3 3 3 4 ",
"2 4 1 3 3 3 c ` E L I Y / *.k.z.u.u.z 2.0.f . & > , 3 2 2 2 4 4 ",
"1 1 ; 2 > , $.i.:.=.=.=.d.i.u.y. .v o 7.D.v.> + - > 1 1 1 > 1 3 ",
"d d a a M <.i.s.j.c.x.s.f.$.) n a.5.A b.D.M.M $ 2 s s < s f a f ",
"4 2 2 4 V j.j.y.h.x.f.#.{ ) 8 f P.P.P.P.S.q.s u q 2 q > u 2 2 u ",
"2 2 2 2 w } } ;.p.-.) c O @ C m.P.D.L.D.v.h 3 3 2 2 2 > u 2 y a ",
"> > > > > : < .           4.N.P.D.B.B.b.S > > > , < > > 2 , 1 1 ",
"u u 3 a a a a u $     X 6 l 4.q.w.C 6.Z u u 3 u a a a f d d a d ",
"u 3 u u < 2 2 < < $ X 6 l 6.4.4.S.h d 3 2 < 3 y 2 1 2 2 2 2 4 u ",
"u 2 3 u < < q < < , 0 t r.m.,.! ^ r 0 2 2 1 u 2 2 2 1 1 1 2 1 u ",
"> > > > > > > , > , 0 ~ V.n.9.>.U P _ x > > < , > , > , : : > 1 ",
"d u u s d a u a a u g ! e.N.Z.n.L U W l i i i 3 f d d f i u a 3 ",
"f 2 2 , 2 1 , , < < a D 4.S.L.m.t P W e < < 3 , 2 2 3 u 2 , 2 2 ",
"f u 1 2 2 < 2 < 2 2 k F.K t.t.8.K F n w 3 < 3 , u 3 2 2 2 1 2 1 ",
"u , , > , > , > > , 5 G.F.G j G H.K 5 > , , > > < , > , 1 > 1 1 ",
"3 u d u y d a 3 3 u B J.H Z A J K.B a u d d u 3 i u u < d a a d ",
"2 2 2 2 3 2 2 < < < 3 a 4.N.A.C.t.C y 1 3 3 3 2 2 3 3 > a 2 2 3 ",
"3 2 2 1 < 2 , 2 < < < < u & # # @ < 1 1 3 3 3 3 2 2 2 > 3 1 2 3 ",
"2 , , , < , , 1 , , , , > - * - ; > < < 1 , , 2 2 , , ; 2 > 1 2 "
};
