/* XPM */
static char *_641142167303[] = {
/* columns rows colors chars-per-pixel */
"32 32 170 2 ",
"   c #020203",
".  c #0B0705",
"X  c #0E0C04",
"o  c #140D0B",
"O  c #1A1404",
"+  c #151109",
"@  c #191511",
"#  c #231B15",
"$  c #291D17",
"%  c #341A10",
"&  c #2E2014",
"*  c #2C231B",
"=  c #312316",
"-  c #34261B",
";  c #36291D",
":  c #392B1E",
">  c #2E2921",
",  c #362B22",
"<  c #3C2E22",
"1  c #3E3124",
"2  c #3D3229",
"3  c #450F0D",
"4  c #431A0D",
"5  c #5E1411",
"6  c #6A1A16",
"7  c #741B15",
"8  c #7B1B15",
"9  c #4A3508",
"0  c #543F0F",
"q  c #422D1F",
"w  c #41321B",
"e  c #4A371E",
"r  c #4D391C",
"t  c #533D1C",
"y  c #782914",
"u  c #402E20",
"i  c #423425",
"p  c #4B3626",
"a  c #493826",
"s  c #443629",
"d  c #46382A",
"f  c #4A3B2B",
"g  c #523325",
"h  c #533E2C",
"j  c #473C33",
"k  c #7A2B31",
"l  c #594211",
"z  c #63470A",
"x  c #724F05",
"c  c #785408",
"v  c #63491E",
"b  c #664A1C",
"n  c #785615",
"m  c #785719",
"M  c #55402E",
"N  c #5C442A",
"B  c #4D4030",
"V  c #5A4432",
"C  c #6E5221",
"Z  c #775A24",
"A  c #654631",
"S  c #6C4A35",
"D  c #694C37",
"F  c #724E38",
"G  c #6B523E",
"H  c #735139",
"J  c #7B563D",
"K  c #783A4A",
"L  c #6D3F51",
"P  c #7E3F53",
"I  c #4D4D5E",
"U  c #5C5B58",
"Y  c #6C5845",
"T  c #755740",
"R  c #724053",
"E  c #784054",
"W  c #545D7F",
"Q  c #65516E",
"!  c #615270",
"~  c #787973",
"^  c #841A16",
"/  c #8B1A17",
"(  c #911A17",
")  c #961A18",
"_  c #85271A",
"`  c #9C2918",
"'  c #9E2919",
"]  c #8A3317",
"[  c #9C3419",
"{  c #873124",
"}  c #855D0E",
"|  c #9E4410",
" . c #995819",
".. c #A94819",
"X. c #A65410",
"o. c #8D630E",
"O. c #97690B",
"+. c #8A6111",
"@. c #8A651C",
"#. c #966714",
"$. c #A4610A",
"%. c #A77409",
"&. c #AE781B",
"*. c #994936",
"=. c #87523B",
"-. c #83593F",
";. c #C27D1F",
":. c #CA7C20",
">. c #845C42",
",. c #8A5E43",
"<. c #9C5C42",
"1. c #9A6A4A",
"2. c #9B7859",
"3. c #A1694B",
"4. c #B46A4D",
"5. c #AB7452",
"6. c #B17854",
"7. c #BE7A5A",
"8. c #827060",
"9. c #B9820F",
"0. c #B98414",
"q. c #BF8814",
"w. c #BE8C1E",
"e. c #C38B15",
"r. c #CB861D",
"t. c #C58F19",
"y. c #CC941A",
"u. c #D1971D",
"i. c #D49A1F",
"p. c #CC8921",
"a. c #C79223",
"s. c #D79522",
"d. c #DA9D22",
"f. c #DCA122",
"g. c #A6805E",
"h. c #B5825E",
"j. c #A98361",
"k. c #B78B65",
"l. c #BD916B",
"z. c #C4855E",
"x. c #C18C65",
"c. c #CC8D64",
"v. c #D08F65",
"b. c #C6956C",
"n. c #CD966C",
"m. c #D59368",
"M. c #C99A72",
"N. c #D69F74",
"B. c #DC9F73",
"V. c #D8A175",
"C. c #D8A478",
"Z. c #E1A477",
"A. c #E3AB7D",
"S. c #555F85",
"D. c #576486",
"F. c #5E7194",
"G. c #71788F",
"H. c #66799D",
"J. c #5A74A9",
"K. c #758AB0",
"L. c #9D999B",
"P. c #AAA193",
"I. c #8799BD",
"U. c #AFA8A2",
"Y. c #E5AF80",
"T. c #E6B182",
"R. c #EAB283",
"E. c #8B9FC7",
"W. c #E6D8CE",
"Q. c #E9DFD4",
/* pixels */
"1 B f f f d i f f f f a a f f f d d a f a f a a f f d a f a f h ",
"= i : i 1 1 : 1 < < u < < N b b v C C b r 1 1 s 1 < i 1 i i < s ",
"= s : : < < < 1 , < : : r O.t.u.9.d.f.q.+.a : i : , i : i q < i ",
"& 1 : ; , ; : ; : : : : O.y.i.s.s.s.i.f.e.o.w : : - 1 - - - : , ",
"i 1 1 i 1 i i i s i e o.u.9.X.` ` ` ` :.f.t.o.i : 1 i i i i s s ",
"1 : 1 < ; < < 1 < , q y [ [ | $.$.$.$...[ [ y 1 : 1 < : < < < 1 ",
"2 < 1 < ; < : 1 t } +.&.4  .r.u.u.e.9  .:. .% } } a i < < < < i ",
"; ; < ; ; ; ; l #.e.%.z . 9 l l l 0 X 9 l 9 X %.q.+.r : - , ; < ",
"d d f d s a v #.e.0.z X                     X x q.q.@.N a < B d ",
": : 1 < ; : } e.t.x         @ @               O O.i.q.n < : 1 1 ",
"< : < 1 : : n q.0.O         G g.. - - o       + c i.a.Z 1 : 1 1 ",
"; ; ; ; : ; : @.t.c .     . G g.# M.C.i         O t.m 1 ; ; : : ",
"d d i i d s d i C w.X     s * d R.T.@ ~ U   $ M.@   * s 2 d d d ",
"< < , i 1 1 : : - 1 k.l.l.G * f R.A.@ 2 * 1 b.M.@ # < < 1 1 1 1 ",
"< < < i 1 < : i : - T k.A.k.2.j.R.T.2.D T 2.k.M * - 1 < < , 2 2 ",
", , - , - ; ; ; : : M -.x.V.A.A.Z.Z.T.k.7.h.J - ; & : ; , - ; 2 ",
"d d d d s d 1 d h G S ,.D <.4.7.x.c.7.4.>.F ,.h =.f g < s s s f ",
"2 < < < < < < p S 3.,.c.- 5 8 { <.<.^ 8 3 g v.>.5.h u - s u u s ",
"< < < 1 < < < H 5.6.m.R.{ / ) / 7 7 ( ) ) *.Y.c.6.5.h - s u < s ",
"- - - - - - >.c.Y.v.3.A ( ) ) / _ p.` ) ) _ h 5.m.Y.x.S < , , , ",
"s i < s s p A j.R.N.F # ^ ) ) ( 8 ] ) ) ) 6 # >.Y.R.3.h s s s p ",
"i 1 i i : < u A >.T s - 6 ( ) ( y r.) ) / 6 , h T >.h u < < < s ",
"i < 1 i : < < i p p s I ! k / ( y ..` / K ! I u g p < , , < < s ",
"- = ; - - - - - - - 2 S.J.Q R E R K E >.S.J.S., ; , - - - % ; ; ",
"a d s p s s i i d s j G.D.D.F.H.J.F.K.H.E.I.G.1 s s d f s s i i ",
"a < < : < , - : : : a P.Y V 8.L.W W U.8.W.Q.P.: < < i < < ; , < ",
"f u < : < : , < : 1 i 1.Y.B.x.,.: i 1.z.C.V.1.; i < < < < < < < ",
"1 , , - ; - ; ; = ; : 1.Y.R.n.>.; u 1.V.R.V.1.- , : ; : , - - , ",
"i i s i u s s i 1 1 s M , * i h p s M < * 1 M 1 s i i : s s i f ",
"< < < , i < < : : : 1 < * * - < < < < * * ; < < < < 1 - s < < < ",
"< < < : : < : , : : : : < ; < < u < : : 1 1 < 1 : 1 : - < , < i ",
"< : : ; : ; : - : ; ; - - ; ; ; : - : - ; < ; < < : : - < - , < "
};
